<?xml version="1.0" encoding="utf-8"?>
<!-- Generator: Adobe Illustrator 26.3.1, SVG Export Plug-In . SVG Version: 6.00 Build 0)  -->
<svg version="1.1" xmlns="http://www.w3.org/2000/svg" xmlns:xlink="http://www.w3.org/1999/xlink" x="0px" y="0px"
	viewBox="0 0 454 255" style="enable-background:new 0 0 454 255;" xml:space="preserve">
	<style type="text/css">
		.st0 {
			fill: #0079AA;
		}

		.st1 {
			fill: #C1EDFF;
		}

		.st2 {
			fill: #699CB2;
		}

		.st3 {
			fill: #058DC5;
		}
	</style>
	<g id="Background_xA0_Image_00000000906156107758485380000000052046469962364571_">
		<g>
			<path class="st0" d="M52.41,216.88c0,3.67-1.2,6.57-3.6,8.72c-2.4,2.14-5.67,3.22-9.82,3.22c-4.11,0-7.37-1.07-9.79-3.22
			c-2.42-2.14-3.63-5.05-3.63-8.72v-13.53c0-0.95,0.31-1.68,0.94-2.17c0.62-0.5,1.43-0.74,2.42-0.74c0.51,0,1.04,0.05,1.6,0.17
			c0.55,0.11,0.99,0.26,1.32,0.44v14.46c0,5.1,2.38,7.65,7.15,7.65c4.77,0,7.15-2.55,7.15-7.65v-12.15c0-0.95,0.31-1.68,0.94-2.17
			c0.62-0.5,1.43-0.74,2.42-0.74c0.51,0,1.04,0.05,1.59,0.17c0.55,0.11,0.99,0.26,1.32,0.44V216.88z" />
			<path class="st0" d="M85.63,216.88c0,3.67-1.2,6.57-3.6,8.72c-2.4,2.14-5.67,3.22-9.82,3.22c-4.11,0-7.37-1.07-9.79-3.22
			c-2.42-2.14-3.63-5.05-3.63-8.72v-13.53c0-0.95,0.31-1.68,0.94-2.17c0.62-0.5,1.43-0.74,2.42-0.74c0.51,0,1.04,0.05,1.6,0.17
			c0.55,0.11,0.99,0.26,1.32,0.44v14.46c0,5.1,2.38,7.65,7.15,7.65c4.77,0,7.15-2.55,7.15-7.65v-12.15c0-0.95,0.31-1.68,0.94-2.17
			c0.62-0.5,1.43-0.74,2.42-0.74c0.51,0,1.04,0.05,1.59,0.17c0.55,0.11,0.99,0.26,1.32,0.44V216.88z" />
			<path class="st0" d="M92.84,193.33c0-0.95,0.32-1.7,0.96-2.23c0.64-0.53,1.48-0.8,2.5-0.8c0.51,0,1.04,0.06,1.57,0.19
			c0.53,0.13,1.04,0.28,1.51,0.47v31.07h19.42v6H92.84V193.33z" />
			<path class="st0" d="M134.75,228.81c-2.9,0-5.45-0.61-7.67-1.82c-2.22-1.21-3.95-2.89-5.2-5.03c-1.25-2.15-1.87-4.65-1.87-7.51
			c0-2.9,0.64-5.45,1.92-7.67c1.28-2.22,3.05-3.96,5.31-5.23c2.25-1.26,4.83-1.9,7.73-1.9c3.52,0,6.37,0.82,8.55,2.45
			c2.18,1.63,3.27,3.86,3.27,6.68c0,2.86-1.27,5-3.82,6.44c-2.55,1.43-6.59,2.14-12.13,2.14c-0.51,0-1.15-0.01-1.9-0.03
			c-0.75-0.02-1.49-0.05-2.23-0.08c0.29,1.91,1.27,3.43,2.94,4.56c1.67,1.14,3.77,1.71,6.3,1.71c2.75,0,5.24-0.64,7.48-1.92
			l2.31,4.4c-0.81,0.51-1.81,0.99-3.02,1.43c-1.21,0.44-2.51,0.78-3.9,1.02C137.42,228.69,136.07,228.81,134.75,228.81z
			 M134.86,204.5c-2.42,0-4.41,0.78-5.97,2.34c-1.56,1.56-2.37,3.6-2.45,6.13c0.62,0.04,1.28,0.05,1.98,0.05c0.7,0,1.61,0,2.75,0
			c6.34,0,9.51-1.45,9.51-4.34c0-1.28-0.54-2.3-1.62-3.05C137.98,204.88,136.58,204.5,134.86,204.5z" />
			<path class="st0" d="M176.33,227.93c-1.91,0.26-3.97,0.47-6.19,0.63c-2.22,0.17-4.23,0.25-6.02,0.25c-4.55,0-8.02-0.71-10.42-2.15
			c-2.4-1.43-3.6-3.76-3.6-6.98c0-2.86,1.04-5.06,3.11-6.6c2.07-1.54,5.44-2.31,10.09-2.31c1.06,0,2.25,0.04,3.57,0.11
			c1.32,0.07,2.38,0.17,3.19,0.28c0-2.24-0.69-3.87-2.06-4.89s-3.42-1.54-6.13-1.54c-1.72,0-3.29,0.18-4.7,0.55
			c-1.41,0.37-2.43,0.83-3.05,1.38c-0.4-0.29-0.75-0.71-1.04-1.24c-0.29-0.53-0.44-1.09-0.44-1.68c0-1.25,0.77-2.24,2.31-2.97
			c1.54-0.73,3.81-1.1,6.82-1.1c4.8,0,8.43,0.98,10.89,2.94c2.46,1.96,3.68,4.89,3.68,8.77V227.93z M158.23,223.23
			c1.25,0.68,3.21,1.02,5.88,1.02c1.1,0,2.22-0.04,3.35-0.14c1.14-0.09,2.02-0.21,2.64-0.36v-8.03c-0.81-0.18-1.86-0.32-3.16-0.41
			c-1.3-0.09-2.45-0.14-3.44-0.14c-2.68,0-4.54,0.39-5.58,1.18c-1.04,0.79-1.57,1.95-1.57,3.49
			C156.36,221.42,156.98,222.55,158.23,223.23z" />
			<path class="st0" d="M182.76,210.28c0-3.34,1.04-5.94,3.11-7.81c2.07-1.87,4.94-2.8,8.61-2.8c2.49,0,4.42,0.37,5.78,1.1
			c1.36,0.73,2.03,1.67,2.03,2.8c0,0.59-0.16,1.17-0.47,1.76c-0.31,0.59-0.61,0.97-0.91,1.16c-1.61-0.81-3.43-1.21-5.44-1.21
			c-4.29,0-6.44,2.27-6.44,6.82v15.95h-6.27V210.28z" />
			<path class="st0" d="M205.47,211.38c0-2.35,0.56-4.4,1.68-6.16c1.12-1.76,2.69-3.12,4.7-4.1c2.02-0.97,4.36-1.46,7.04-1.46
			c2.71,0,5.07,0.49,7.07,1.46c2,0.97,3.56,2.34,4.68,4.1c1.12,1.76,1.68,3.81,1.68,6.16v16.67h-6.27v-15.07
			c0-2.49-0.6-4.39-1.81-5.69c-1.21-1.3-2.99-1.95-5.33-1.95c-4.77,0-7.15,2.55-7.15,7.65v15.07h-6.27V211.38z" />
			<path class="st0" d="M239.44,194.66c-0.71-0.73-1.07-1.65-1.07-2.75s0.36-2.02,1.07-2.75c0.71-0.73,1.62-1.1,2.72-1.1
			s2.01,0.37,2.72,1.1c0.71,0.73,1.07,1.65,1.07,2.75s-0.36,2.02-1.07,2.75c-0.71,0.73-1.62,1.1-2.72,1.1
			S240.15,195.39,239.44,194.66z M245.29,228.04h-6.27v-24.69c0-0.95,0.31-1.68,0.93-2.17c0.62-0.5,1.43-0.74,2.42-0.74
			c0.51,0,1.04,0.05,1.6,0.17c0.55,0.11,0.99,0.26,1.32,0.44V228.04z" />
			<path class="st0" d="M252,211.38c0-2.35,0.56-4.4,1.68-6.16c1.12-1.76,2.69-3.12,4.7-4.1c2.02-0.97,4.36-1.46,7.04-1.46
			c2.71,0,5.07,0.49,7.07,1.46c2,0.97,3.56,2.34,4.67,4.1c1.12,1.76,1.68,3.81,1.68,6.16v16.67h-6.27v-15.07
			c0-2.49-0.6-4.39-1.81-5.69c-1.21-1.3-2.99-1.95-5.33-1.95c-4.77,0-7.15,2.55-7.15,7.65v15.07H252V211.38z" />
			<path class="st0" d="M298.09,239.59c-1.94,0-3.95-0.2-6.02-0.6c-2.07-0.4-3.77-0.92-5.09-1.54l1.71-4.67
			c1.03,0.48,2.38,0.89,4.07,1.24c1.69,0.35,3.3,0.52,4.84,0.52c3.15,0,5.6-0.83,7.34-2.5s2.61-4.12,2.61-7.34v-0.66
			c-1.03,1.25-2.32,2.25-3.88,3c-1.56,0.75-3.38,1.13-5.47,1.13c-2.6,0-4.97-0.58-7.09-1.73c-2.13-1.16-3.82-2.78-5.09-4.87
			c-1.26-2.09-1.9-4.53-1.9-7.31c0-2.79,0.63-5.27,1.9-7.45c1.27-2.18,3.03-3.91,5.28-5.2c2.25-1.28,4.89-1.92,7.89-1.92
			c2.97,0,5.54,0.63,7.73,1.9c2.18,1.27,3.88,3.08,5.09,5.45s1.82,5.22,1.82,8.55v7.7c0,5.24-1.36,9.28-4.07,12.1
			C307.04,238.18,303.15,239.59,298.09,239.59z M299.14,205.33c-2.57,0-4.63,0.81-6.19,2.42c-1.56,1.61-2.34,3.74-2.34,6.38
			c0,2.64,0.78,4.77,2.34,6.38c1.56,1.61,3.62,2.42,6.19,2.42c2.57,0,4.63-0.81,6.19-2.42c1.56-1.61,2.34-3.74,2.34-6.38
			c0-2.64-0.78-4.77-2.34-6.38C303.77,206.13,301.7,205.33,299.14,205.33z" />
			<path class="st0"
				d="M352.87,228.04h-6.54v-16.61h-19.36v16.61h-6.54v-34.71c0-0.95,0.32-1.7,0.96-2.23
			c0.64-0.53,1.48-0.8,2.5-0.8c0.51,0,1.04,0.06,1.57,0.19c0.53,0.13,1.04,0.28,1.51,0.47v14.46h19.36v-12.1
			c0-0.95,0.32-1.7,0.96-2.23c0.64-0.53,1.48-0.8,2.5-0.8c0.51,0,1.04,0.06,1.57,0.19c0.53,0.13,1.04,0.28,1.51,0.47V228.04z" />
			<path class="st0" d="M386.92,216.88c0,3.67-1.2,6.57-3.6,8.72c-2.4,2.14-5.67,3.22-9.82,3.22c-4.11,0-7.37-1.07-9.79-3.22
			s-3.63-5.05-3.63-8.72v-13.53c0-0.95,0.31-1.68,0.93-2.17c0.62-0.5,1.43-0.74,2.42-0.74c0.51,0,1.04,0.05,1.59,0.17
			c0.55,0.11,0.99,0.26,1.32,0.44v14.46c0,5.1,2.38,7.65,7.15,7.65c4.77,0,7.15-2.55,7.15-7.65v-12.15c0-0.95,0.31-1.68,0.94-2.17
			c0.62-0.5,1.43-0.74,2.42-0.74c0.51,0,1.04,0.05,1.59,0.17c0.55,0.11,0.99,0.26,1.32,0.44V216.88z" />
			<path class="st0" d="M392.69,190.42c0-0.95,0.31-1.68,0.93-2.17s1.43-0.74,2.42-0.74c0.51,0,1.04,0.06,1.59,0.17
			c0.55,0.11,0.99,0.26,1.32,0.44v15.79c1.03-1.32,2.34-2.36,3.93-3.11c1.6-0.75,3.4-1.13,5.42-1.13c2.64,0,5.02,0.63,7.15,1.9
			c2.13,1.27,3.81,2.99,5.06,5.17c1.25,2.18,1.87,4.68,1.87,7.51c0,2.82-0.64,5.33-1.92,7.54c-1.28,2.2-3.06,3.92-5.33,5.17
			c-2.27,1.25-4.91,1.87-7.92,1.87c-2.97,0-5.54-0.63-7.7-1.9c-2.16-1.27-3.84-3.09-5.03-5.47c-1.19-2.38-1.79-5.23-1.79-8.53
			V190.42z M413.54,207.69c-1.58-1.65-3.61-2.48-6.1-2.48c-2.49,0-4.54,0.83-6.13,2.48c-1.59,1.65-2.39,3.81-2.39,6.49
			s0.8,4.84,2.39,6.49c1.59,1.65,3.64,2.48,6.13,2.48c2.49,0,4.53-0.83,6.1-2.48c1.58-1.65,2.37-3.81,2.37-6.49
			S415.11,209.34,413.54,207.69z" />
		</g>
	</g>
	<g id="Layer_group_00000005258377150575123720000006381935581982449792_">
		<g id="Vector_layer_00000135657563276118378160000012075693913783713463_">
			<path d="M219.34,66.92c-22.35-21.21-51.43-34.36-81.96-36.97c-1.45-0.15-2.93-0.19-4.37-0.32c-4.36-0.49-3.93-7.3,0.49-7.21
			c14.7,0.83,29.26,3.9,43.03,9.14c17.77,6.75,34.17,17.12,47.93,30.23C227.74,65.14,222.76,70.23,219.34,66.92z" />
			<path d="M220.72,168.3c-22.35-21.21-51.43-34.36-81.96-36.97c-1.45-0.15-2.93-0.19-4.37-0.32c-4.36-0.49-3.93-7.3,0.49-7.21
			c14.7,0.83,29.26,3.9,43.03,9.14c17.77,6.75,34.17,17.12,47.93,30.23C229.12,166.52,224.14,171.61,220.72,168.3z" />
			<path d="M130.8,125.29c-2.41-18.46-1.93-36.85-2.29-55.38c0.25-14.73-0.55-29.52,0.44-44.22c1.49-5.69,8.75-2.92,7,2.6
			c-0.49,24.04-0.21,48.1,0.24,72.14c0.5,8.06,0.51,15.94,1.78,23.88C138.6,128.94,131.55,130,130.8,125.29z" />
			<path d="M218.17,169.55c-18.98-12.27-41.8-19.73-64.19-21.2c-3.15-0.35-8.44,0.68-8.6-3.86c0-1.93,1.64-3.68,3.62-3.62
			c11.74,0.37,23.45,2.14,34.76,5.34c13.41,3.81,26.32,9.57,38.06,17.09c1.64,1.08,2.33,3.18,1.3,4.95
			C222.16,169.89,219.81,170.63,218.17,169.55z" />
			<path d="M146.82,147.61c-4.56-0.8-2.68-6.2-3.08-9.46c0.03-2.29-0.25-4.57-0.2-6.85c0.3-2.79,4-4.16,6.02-2.19
			c1.22,0.91,1.8,2.66,1.24,4.13c0.08,1.91,0.17,3.81,0.19,5.72C151.06,142.24,151.67,148.05,146.82,147.61z" />
			<path d="M225.81,66.64c22.35-21.21,51.43-34.36,81.96-36.97c1.45-0.15,2.93-0.19,4.37-0.32c4.36-0.49,3.93-7.3-0.49-7.21
			c-14.7,0.83-29.26,3.9-43.03,9.14c-17.77,6.75-34.17,17.12-47.93,30.23C217.41,64.85,222.39,69.95,225.81,66.64z" />
			<path d="M224.42,168.02c22.35-21.21,51.43-34.36,81.96-36.97c1.45-0.15,2.93-0.19,4.37-0.32c4.36-0.49,3.93-7.3-0.49-7.21
			c-14.7,0.83-29.26,3.9-43.03,9.14c-17.77,6.75-34.17,17.12-47.93,30.23C216.02,166.23,221.01,171.33,224.42,168.02z" />
			<path d="M314.35,125c2.41-18.46,1.93-36.85,2.29-55.38C316.4,54.9,317.2,40.1,316.2,25.4c-1.49-5.69-8.75-2.92-7,2.6
			c0.49,24.04,0.21,48.1-0.24,72.14c-0.5,8.06-0.51,15.94-1.78,23.88C306.55,128.66,313.6,129.72,314.35,125z" />
			<path d="M226.98,169.27c18.98-12.27,41.8-19.73,64.19-21.2c3.15-0.35,8.44,0.68,8.6-3.86c0-1.93-1.64-3.68-3.62-3.62
			c-11.74,0.37-23.45,2.14-34.76,5.34c-13.41,3.81-26.32,9.57-38.06,17.09c-1.64,1.08-2.33,3.18-1.3,4.95
			C222.99,169.61,225.34,170.35,226.98,169.27z" />
			<path d="M298.33,147.32c4.56-0.8,2.68-6.2,3.08-9.46c-0.03-2.29,0.25-4.57,0.2-6.85c-0.3-2.79-4-4.16-6.02-2.19
			c-1.22,0.91-1.8,2.66-1.24,4.13c-0.08,1.91-0.17,3.81-0.19,5.72C294.09,141.95,293.47,147.77,298.33,147.32z" />
			<path d="M219.9,162.67c-0.39-15.95-0.83-31.89-1.07-47.84c0.6-0.02,1.19-0.16,1.74-0.41c1.05-0.49,1.91-1.28,2.75-2.07
			c0.6-0.55,1.19-1.1,1.79-1.65c0.12-0.11,0.23-0.22,0.35-0.32c0.02,5.41,0.04,10.82,0.07,16.23c0.37,12.02,1.04,24.03,1.05,36.06
			c-0.01,2.17-1.67,3.27-3.34,3.27C221.59,165.94,219.94,164.85,219.9,162.67z" />
			<path d="M223.46,89.68c-0.07-0.03-0.14-0.06-0.21-0.09c-0.38-0.17-0.77-0.31-1.18-0.42c-0.06-0.02-0.12-0.03-0.18-0.05
			c-0.35-0.12-0.7-0.23-1.05-0.34c-0.69-0.22-1.43-0.46-2.17-0.49c0.01-2.16,0.02-4.32,0.04-6.48c-0.01-5.49-0.28-10.98-0.14-16.47
			c0.03-1.17,0.05-2.41,0.8-3.38c2.26-2.99,7.13-0.35,5.89,3.13c0.06,8.45,0.09,16.91,0.13,25.37
			C224.75,90.18,224.11,89.92,223.46,89.68z" />
			<path class="st1" d="M177.91,132.95c-12.81-4.88-26.31-7.89-39.98-8.94c-1.23-7.83-1.24-15.62-1.74-23.59
			c-0.44-23.52-0.72-47.08-0.27-70.6c0.49,0.03,0.97,0.07,1.46,0.12c30.18,2.57,58.94,15.45,81.18,36.24
			c-0.09,5.21,0.15,10.41,0.16,15.62c-0.02,2.16-0.04,4.32-0.05,6.48c-0.19-0.01-0.38,0-0.57,0.03c-0.82,0.12-1.48,0.77-1.67,1.57
			c0,0.01,0,0.02-0.01,0.03c-0.2,0.8,0.16,1.64,0.81,2.13c0.41,0.3,0.92,0.47,1.43,0.62c0.13,0.45,0.49,0.79,0.88,1.04
			c0.2,0.19,0.43,0.33,0.69,0.44c0.75,0.31,1.52,0.56,2.3,0.8c0.12,0.05,0.24,0.1,0.36,0.15c0,0,0-0.01,0-0.01
			c0.09,0.03,0.18,0.05,0.28,0.06c0.65,0.21,1.31,0.41,1.97,0.6c0.6,0.18,1.21,0.36,1.83,0.51c0.45,0.11,0.92,0.24,1.39,0.24
			c0.12,0,0.24-0.01,0.36-0.03c0.93-0.15,1.67-0.89,1.76-1.84c0.13-1.36-1.04-2.17-2.07-2.76c-0.54-0.3-1.09-0.59-1.65-0.85
			c-0.45-0.21-0.9-0.41-1.36-0.6c-0.03-7.79-0.06-15.58-0.11-23.37c0.18-0.13,0.36-0.27,0.53-0.44
			c22.35-21.21,51.43-34.36,81.96-36.97c0.48-0.05,0.97-0.09,1.46-0.12c0.45,23.52,0.17,47.07-0.27,70.6
			c-0.5,7.96-0.51,15.75-1.74,23.59c-13.67,1.06-27.17,4.06-39.98,8.94c-14.76,5.6-28.57,13.71-40.72,23.81
			c-0.17-9.96-0.68-19.91-0.99-29.87c-0.03-5.41-0.06-10.82-0.07-16.23c-0.12,0.1-0.23,0.21-0.35,0.32c-0.6,0.55-1.19,1.1-1.79,1.65
			c-0.84,0.78-1.7,1.57-2.75,2.07c-0.55,0.26-1.14,0.39-1.74,0.41c0.21,14.3,0.59,28.6,0.95,42.9
			C207.36,147.18,193.14,138.73,177.91,132.95z" />
			<path class="st2" d="M198.9,151.43c-4.95-2.02-10-3.76-15.13-5.22c-10.66-3.01-21.67-4.76-32.72-5.25c-0.01-0.71-0.05-1.4-0.06-2
			c-0.02-1.91-0.1-3.81-0.19-5.72c0.04-0.1,0.07-0.2,0.1-0.3C167.9,135.97,184.23,142.29,198.9,151.43z" />
			<path class="st2" d="M294.26,132.65c0.03,0.1,0.06,0.2,0.1,0.3c-0.08,1.91-0.17,3.81-0.19,5.72c-0.01,0.6-0.05,1.28-0.06,2
			c-11.06,0.5-22.07,2.25-32.72,5.25c-5.13,1.46-10.19,3.2-15.13,5.22C260.92,142.01,277.24,135.69,294.26,132.65z" />
		</g>
		<g id="Vector_layer_00000103259330365176431530000005419047661805139080_">
			<path d="M205.51,119.69c-0.03-11.78,0.03-23.57,0-35.35c0-2.53,0.03-5.05,0-7.57c-0.01-1.2,1.02-2.21,2.21-2.21
			c3.14,0.95,5.84,3.24,8.79,4.71c9.82,5.66,19.65,11.34,29.46,17c0.01,0.01,0.02,0.01,0.03,0.02c0.01,0,0.02,0.01,0.03,0.02
			c1.42,0.81,1.45,2.99,0,3.83c-1.41,0.85-2.88,1.64-4.3,2.48c-5.22,3.02-10.44,6.03-15.67,9.05c-4.83,2.79-9.67,5.59-14.52,8.38
			c-1.29,0.64-2.37,1.72-3.78,1.84C206.61,121.89,205.53,120.99,205.51,119.69z M209.94,87.35c0,9.51,0.02,19.03-0.01,28.54
			c10.17-5.92,20.38-11.78,30.56-17.67c-10.18-5.88-20.37-11.76-30.55-17.64C209.94,82.84,209.94,85.1,209.94,87.35z" />
			<path class="st3" d="M209.94,87.35c0-2.26,0-4.51,0-6.76c10.18,5.88,20.36,11.76,30.55,17.63c-10.19,5.89-20.4,11.74-30.56,17.67
			C209.95,106.38,209.94,96.87,209.94,87.35z" />
		</g>
		<g id="Vector_layer_00000029026538959452500450000018174034306173911175_">
			<path d="M191.1,67.19c-13.69-8.56-28.77-14.68-44.54-18.06c-2.43-0.71-1.47-4.36,1.04-3.76c6.62,1.44,13.15,3.33,19.5,5.68
			c6.88,2.55,13.55,5.64,19.96,9.22c2.03,1.14,4.04,2.31,6.01,3.55c0.9,0.57,1.25,1.73,0.7,2.67
			C193.24,67.39,191.99,67.75,191.1,67.19z" />
			<path d="M191.38,87.47c-13.25-7.72-27.72-13.15-42.58-16.13c-2.51-0.43-2.02-4.17,0.53-3.86c7.16,1.42,14.2,3.39,21.06,5.86
			c7.11,2.57,14,5.76,20.61,9.43c1.48,0.86,4.21,1.82,3.05,4C193.51,87.7,192.29,88,191.38,87.47z" />
			<path d="M191.86,110.04c-13.29-7.5-27.81-12.76-42.8-15.56c-2.51-0.44-2.02-4.16,0.53-3.86c6.95,1.27,13.79,3.08,20.47,5.37
			c7.14,2.44,14.07,5.49,20.74,9.02c1.58,1.01,4.98,1.84,3.73,4.33C193.97,110.28,192.77,110.55,191.86,110.04z" />
			<path d="M193.91,131.11c-14.61-7.37-30.32-12.08-46.52-13.95c-2.51-0.39-2.03-4.13,0.53-3.86c6.95,0.81,13.85,2.12,20.6,3.95
			c8.55,2.3,16.89,5.41,24.86,9.27c1.44,0.73,3.92,1.46,3.08,3.56C196.06,131.03,194.86,131.55,193.91,131.11z" />
		</g>
		<g id="Vector_layer_00000174590394600019652460000003119876985977508026_">
			<path d="M254.27,65.72c13.69-8.56,28.77-14.68,44.54-18.06c2.43-0.71,1.47-4.36-1.04-3.76c-6.62,1.44-13.15,3.33-19.5,5.68
			c-6.88,2.55-13.55,5.64-19.96,9.22c-2.03,1.14-4.04,2.31-6.01,3.55c-0.9,0.57-1.25,1.73-0.7,2.67
			C252.13,65.92,253.37,66.29,254.27,65.72z" />
			<path d="M253.98,86c13.25-7.72,27.72-13.15,42.58-16.13c2.51-0.43,2.02-4.17-0.53-3.86c-7.16,1.42-14.2,3.39-21.06,5.86
			c-7.11,2.57-14,5.76-20.61,9.43c-1.48,0.86-4.21,1.82-3.05,4C251.86,86.23,253.08,86.53,253.98,86z" />
			<path d="M253.51,108.57c13.29-7.5,27.81-12.76,42.8-15.56c2.51-0.44,2.02-4.16-0.53-3.86c-6.95,1.27-13.79,3.08-20.47,5.37
			c-7.14,2.44-14.07,5.49-20.74,9.02c-1.58,1.01-4.98,1.84-3.73,4.33C251.39,108.81,252.6,109.09,253.51,108.57z" />
			<path d="M251.46,129.64c14.61-7.37,30.32-12.08,46.52-13.95c2.51-0.39,2.03-4.13-0.53-3.86c-6.95,0.81-13.85,2.12-20.6,3.95
			c-8.55,2.3-16.89,5.41-24.86,9.27c-1.44,0.73-3.92,1.46-3.08,3.56C249.3,129.56,250.51,130.09,251.46,129.64z" />
		</g>
	</g>
	<g id="uuLearningHub">
	</g>
</svg>